<?xml version="1.0" standalone="no"?>
<!DOCTYPE svg PUBLIC "-//W3C//DTD SVG 20010904//EN"
 "http://www.w3.org/TR/2001/REC-SVG-20010904/DTD/svg10.dtd">
<svg version="1.0" xmlns="http://www.w3.org/2000/svg"
 width="1630.000000pt" height="1630.000000pt" viewBox="0 0 1630.000000 1630.000000"
 preserveAspectRatio="xMidYMid meet">
<metadata>
Created by potrace 1.14, written by Peter Selinger 2001-2017
</metadata>
<g transform="translate(0.000000,1630.000000) scale(0.100000,-0.100000)"
fill="#000000" stroke="none">
<path d="M5203 10191 c-5 -3 -9 -409 -9 -929 1 -508 -2 -926 -5 -928 -3 -2
-21 17 -38 42 -116 161 -363 310 -587 354 -174 34 -403 33 -554 -1 -25 -6 -54
-12 -64 -15 -92 -18 -274 -100 -376 -168 -270 -179 -462 -484 -527 -836 -24
-132 -24 -428 1 -560 75 -406 318 -741 663 -914 279 -140 662 -171 953 -76
116 38 238 99 322 162 65 47 153 136 186 186 8 13 18 19 21 14 3 -6 6 -88 5
-184 l0 -173 200 2 c111 1 219 2 241 2 l40 1 -1 1988 c-1 1093 -2 1999 -3
2013 l-1 26 -229 0 c-126 0 -234 -3 -238 -6z m-663 -1896 c201 -36 402 -169
507 -333 155 -242 191 -585 91 -875 -19 -56 -75 -174 -88 -187 -3 -3 -24 -30
-47 -60 -73 -96 -191 -182 -315 -229 -81 -31 -98 -36 -178 -49 -89 -14 -342
-5 -372 14 -5 3 -19 7 -33 10 -13 2 -45 14 -72 26 -26 12 -50 22 -53 23 -16 4
-82 43 -125 75 -214 159 -328 426 -320 750 4 144 14 203 55 319 98 278 314
462 605 516 69 13 274 13 345 0z"/>
<path d="M75 9942 l-70 -3 1 -1880 c1 -1034 4 -1883 8 -1886 4 -4 2395 -8
2509 -4 16 1 17 19 17 240 l0 238 -993 1 c-545 0 -1000 1 -1009 1 -17 1 -18
37 -18 604 l0 604 893 -1 892 0 3 240 2 240 -892 0 -893 0 -3 562 -2 562 22 0
c13 1 446 2 963 3 l939 2 1 234 c0 148 -4 235 -10 237 -12 5 -2257 10 -2360 6z"/>
<path d="M10135 8750 c-27 -4 -71 -10 -97 -14 -48 -7 -206 -49 -243 -65 -242
-106 -434 -246 -556 -406 -13 -16 -26 -32 -29 -35 -34 -27 -190 -315 -190
-349 0 -9 -4 -21 -9 -26 -8 -10 -43 -148 -57 -230 -11 -62 -12 -293 -3 -363
13 -96 17 -112 44 -208 85 -293 274 -550 530 -721 321 -215 689 -278 1104
-189 126 27 326 123 460 220 268 194 454 489 517 821 24 126 24 426 0 496 -3
8 -7 28 -9 44 -9 60 -70 222 -120 317 -45 86 -129 211 -168 250 -8 8 -30 32
-49 54 -184 203 -478 353 -785 400 -54 8 -289 11 -340 4z m342 -461 c93 -20
93 -20 188 -64 287 -131 456 -438 449 -815 -8 -427 -228 -731 -600 -831 -60
-16 -111 -22 -209 -23 -153 -1 -193 4 -300 38 -249 79 -428 268 -508 536 -112
374 -1 799 261 1005 104 82 269 152 397 168 87 10 240 4 322 -14z"/>
<path d="M13336 8744 c-247 -47 -454 -180 -578 -374 l-48 -75 0 196 c0 149 -3
198 -12 201 -11 3 -414 2 -455 -1 -10 -1 -13 -261 -13 -1263 l0 -1263 236 1
c129 1 237 4 239 6 2 2 5 322 5 710 1 388 5 723 10 744 5 22 11 53 14 69 2 17
7 40 10 53 3 12 8 30 10 40 9 41 56 144 86 187 123 179 316 267 585 268 80 1
98 -1 189 -22 27 -7 50 -10 51 -9 3 3 12 163 21 380 l5 136 -58 13 c-80 17
-214 18 -297 3z"/>
<path d="M15108 8755 c-2 -1 -32 -5 -68 -9 -36 -3 -76 -8 -90 -11 -14 -2 -38
-7 -55 -11 -148 -29 -374 -118 -490 -193 -74 -47 -185 -135 -184 -146 0 -5 62
-75 139 -153 95 -98 143 -141 152 -136 7 4 47 34 89 66 104 79 184 122 290
158 114 38 199 52 324 52 132 0 213 -16 310 -63 209 -101 316 -303 296 -559
-1 -14 -30 -16 -218 -16 -207 -1 -439 -9 -493 -18 -14 -3 -47 -7 -75 -11 -274
-34 -517 -125 -683 -258 -118 -93 -210 -232 -248 -372 -22 -81 -26 -300 -8
-385 58 -272 278 -483 579 -555 168 -40 407 -40 579 0 229 53 395 160 533 343
30 40 56 72 58 70 3 -3 17 -316 16 -360 0 -13 8 -18 27 -19 32 -1 323 -1 370
0 l33 1 -7 63 c-4 34 -8 438 -10 897 -2 509 -8 865 -14 912 -53 382 -364 647
-825 704 -41 5 -323 13 -327 9z m708 -1377 c10 -6 10 -166 1 -258 -15 -138
-68 -280 -141 -375 -94 -123 -230 -206 -390 -240 -78 -16 -256 -23 -312 -12
-16 4 -45 9 -66 11 -20 3 -62 15 -95 27 -165 62 -239 160 -250 335 -8 128 29
220 120 305 77 71 256 148 402 173 95 16 185 26 300 32 72 3 131 7 132 8 6 4
291 -2 299 -6z"/>
<path d="M6240 8591 c-58 -21 -125 -87 -139 -137 -28 -100 -13 -146 118 -373
39 -68 71 -127 71 -132 0 -5 5 -9 10 -9 6 0 10 -4 10 -10 0 -5 32 -64 71 -132
40 -67 80 -136 89 -153 10 -16 54 -93 100 -170 45 -77 94 -160 108 -185 14
-25 45 -78 69 -118 24 -41 43 -76 43 -79 0 -3 8 -17 18 -31 11 -15 32 -52 49
-82 29 -53 84 -149 103 -180 5 -8 68 -118 141 -245 143 -248 166 -283 216
-331 86 -83 200 -91 299 -23 47 32 90 99 319 502 6 9 66 114 135 234 69 119
136 234 148 257 13 23 48 82 77 131 85 144 485 854 519 920 26 51 31 71 31
135 0 67 -3 80 -30 119 -43 64 -118 103 -198 104 -61 1 -64 0 -220 -93 -87
-52 -166 -99 -176 -105 -29 -17 -252 -155 -346 -215 -49 -31 -112 -70 -138
-86 -92 -55 -195 -116 -219 -130 -11 -7 -24 -16 -30 -22 -9 -9 -158 73 -333
184 -38 25 -77 48 -85 52 -15 7 -217 130 -290 177 -65 42 -335 202 -369 220
-46 23 -116 26 -171 6z"/>
</g>
</svg>
